<svg xmlns="http://www.w3.org/2000/svg" width="900" height="157.95" viewBox="0 0 2000 351">
  <metadata><?xpacket begin="﻿" id="W5M0MpCehiHzreSzNTczkc9d"?>
    <x:xmpmeta xmlns:x="adobe:ns:meta/" x:xmptk="Adobe XMP Core 5.6-c140 79.160451, 2017/05/06-01:08:21">
      <rdf:RDF xmlns:rdf="http://www.w3.org/1999/02/22-rdf-syntax-ns#">
        <rdf:Description rdf:about="" xmlns:xmp="http://ns.adobe.com/xap/1.0/">
        <xmp:CreatorTool>Adobe Photoshop CC (Macintosh)</xmp:CreatorTool>
        </rdf:Description>
      </rdf:RDF>
    </x:xmpmeta>
    <?xpacket end="w"?>
  </metadata>
  <defs>
    <style>
      .cls-1, .cls-2, .cls-3 { fill: #fff; fill-rule: evenodd; }
      .cls-1 { opacity: 0.5; }
      .cls-2 { opacity: 0.4; }
    </style>
  </defs>
  <path id="shape_three" class="cls-1" d="M-66.855,208.31c190.786,102.416,379.208,57.837,554.7,4.637,87.492-27.193,168.634-60.635,250.312-78.483C819.85,116.54,905.921,118.764,1009,166c17.53,130.318,27.96,219.8,40,315C679.191,326.744,303.063,558.2-65.846,527.453c-0.612-102.936-.394-219.418-1.009-319.143h0ZM1009,166c200.95,90.28,355.62,44.793,507.22-24.577,76.45-34.277,147.1-76.938,221.84-107.487,37.71-14.994,76.43-26.936,119.4-31.7q8.055-.893,16.32-1.443,4.125-.273,8.31-0.456,4.2-.182,8.44-0.27c11.32-.235,22.95.04,34.96,0.884a452.637,452.637,0,0,1,76.79,12.4C2103.82,193.4,2131.66,314.28,2139.67,419.713c-195.46-88.337-372.13-26.856-555.34,26.786-91.71,26.9-184.54,52.837-277.32,62.442q-17.415,1.8-34.81,2.788-8.715.486-17.41,0.749-8.715.261-17.41,0.288a579.708,579.708,0,0,1-69.65-3.89c-46.43-5.476-72.36-8.608-118.76-28.025">
      <animate attributeName = "d" 
               begin = "0s"
               dur = "6s"
               repeatCount  = "indefinite"
               values = "M-66.855,208.31c190.786,102.416,379.208,57.837,554.7,4.637,87.492-27.193,168.634-60.635,250.312-78.423C819.85,116.54,905.921,118.764,1009,166c17.53,130.318,27.96,219.8,40,315C679.191,326.744,303.063,558.2-65.846,527.453c-0.612-102.936-.394-219.418-1.009-319.143h0ZM1009,166c200.95,90.28,355.62,44.793,507.22-24.577,76.45-34.277,147.1-76.938,221.84-107.487,37.71-14.994,76.43-26.936,119.4-31.7q8.055-.893,16.32-1.443,4.125-.273,8.31-0.456,4.2-.182,8.44-0.27c11.32-.235,22.95.04,34.96,0.884a452.637,452.637,0,0,1,76.79,12.4C2103.82,193.4,2131.66,314.28,2139.67,419.713c-195.46-88.337-372.13-26.856-555.34,26.786-91.71,26.9-184.54,52.837-277.32,62.442q-17.415,1.8-34.81,2.788-8.715.486-17.41,0.749-8.715.261-17.41,0.288a579.708,579.708,0,0,1-69.65-3.89c-46.43-5.476-72.36-8.608-118.76-28.025;

               M-66.855,208.31c190.786,102.416,379.208,57.837,559.7,4.637,87.492-27.193,168.634-60.635,250.312-78.483C819.85,116.54,905.921,118.764,1009,166c17.53,130.318,27.96,219.8,40,315C679.191,326.744,303.063,558.2-65.846,527.453c-0.612-102.936-.394-219.418-1.009-319.143h0ZM1009,166c220.95,70.28,355.62,54.793,507.22-01.577,76.45-34.277,147.1-76.938,221.84-107.487,37.71-14.994,76.43-26.936,119.4-31.7q8.055-.893,16.32-1.443,4.125-.273,8.31-0.456,4.2-.182,8.44-0.27c11.32-.235,22.95.04,34.96,0.884a452.637,452.637,0,0,1,76.79,12.4C2103.82,193.4,2131.66,314.28,2139.67,419.713c-195.46-88.337-372.13-26.856-555.34,26.786-91.71,26.9-184.54,52.837-277.32,62.442q-17.415,1.8-34.81,2.788-8.715.486-17.41,0.749-8.715.261-17.41,0.288a579.708,579.708,0,0,1-69.65-3.89c-46.43-5.476-72.36-8.608-118.76-28.025;

               M-66.855,208.31c190.786,102.416,379.208,57.837,554.7,4.637,87.492-27.193,168.634-60.635,250.312-78.483C819.85,116.54,905.921,118.764,1009,166c17.53,130.318,27.96,219.8,40,315C679.191,326.744,303.063,558.2-65.846,527.453c-0.612-102.936-.394-219.418-1.009-319.143h0ZM1009,166c200.95,90.28,355.62,44.793,507.22-24.577,76.45-34.277,147.1-76.938,221.84-107.487,37.71-14.994,76.43-26.936,119.4-31.7q8.055-.893,16.32-1.443,4.125-.273,8.31-0.456,4.2-.182,8.44-0.27c11.32-.235,22.95.04,34.96,0.884a452.637,452.637,0,0,1,76.79,12.4C2103.82,193.4,2131.66,314.28,2139.67,419.713c-195.46-88.337-372.13-26.856-555.34,26.786-91.71,26.9-184.54,52.837-277.32,62.442q-17.415,1.8-34.81,2.788-8.715.486-17.41,0.749-8.715.261-17.41,0.288a579.708,579.708,0,0,1-69.65-3.89c-46.43-5.476-72.36-8.608-118.76-28.025"
      />
  </path>

  <path id="shape_two" class="cls-2" d="M1049.86,493.947c-187.972-81.139-371.579-26.319-556.632,27.57-92.459,26.989-185.007,53.919-277.759,64.075a687.814,687.814,0,0,1-69.614,4.2q-17.415.133-34.845-.75-17.429-.9-34.874-2.915A495.939,495.939,0,0,1-63.705,548.893q-2.006-149.237-4.012-298.473h0c184.948,79.2,373.047,36.283,551.6-17.275C664.157,180.7,835,117.6,1025,182m0,0c183.61,68.841,351,11.9,508.8-51.759,83.01-33.062,163.2-67.934,250.84-81.378a482.525,482.525,0,0,1,67.46-5.588q17.31-.2,35.14.939,17.82,1.156,36.19,3.763c48.94,6.975,101.06,22.228,155.56,47.342,35.94,121.727,50.01,229.4,56.04,331.9-192.54-84.074-373.11-36.321-556.44,14.163C1395.9,492.29,1237.2,556.606,1050,494">
      <animate attributeName = "d" 
                   begin = "0s"
                   dur = "5s"
                   repeatCount  = "indefinite"
                   values = "M1049.86,493.947c-187.972-81.139-371.579-26.319-556.632,27.57-92.459,26.989-185.007,53.919-277.759,64.075a687.814,687.814,0,0,1-69.614,4.2q-17.415.133-34.845-.75-17.429-.9-34.874-2.915A495.939,495.939,0,0,1-63.705,548.893q-2.006-149.237-4.012-298.473h0c184.948,79.2,373.047,36.283,551.6-17.275C664.157,180.7,835,117.6,1025,182m0,0c183.61,68.841,351,11.9,508.8-51.759,83.01-33.062,163.2-67.934,250.84-81.378a482.525,482.525,0,0,1,67.46-5.588q17.31-.2,35.14.939,17.82,1.156,36.19,3.763c48.94,6.975,101.06,22.228,155.56,47.342,35.94,121.727,50.01,229.4,56.04,331.9-192.54-84.074-373.11-36.321-556.44,14.163C1395.9,492.29,1237.2,556.606,1050,494;

                   M1049.86,493.947c-187.972-81.139-371.579-26.319-556.632,27.57-92.459,26.989-185.007,53.919-277.759,64.075a687.814,687.814,0,0,1-69.614,4.2q-17.415.133-34.845-.75-17.429-.9-34.874-2.915A495.939,495.939,0,0,1-63.705,548.893q-2.006-149.237-4.012-298.473h0c184.948,129.2,373.047,36.283,551.6-17.275C664.157,180.7,755,87.6,1025,182m0,0c183.61,68.841,351,11.9,544.8-51.759,83.01-33.062,163.2-67.934,350.84-81.378a482.525,482.525,0,0,1,67.46-5.588q17.31-.2,35.14.939,17.82,1.156,36.19,3.763c48.94,6.975,101.06,22.228,155.56,47.342,35.94,121.727,50.01,229.4,56.04,331.9-192.54-84.074-373.11-36.321-556.44,14.163C1395.9,492.29,1237.2,556.606,1050,494;

                   M1049.86,493.947c-187.972-81.139-371.579-26.319-556.632,27.57-92.459,26.989-185.007,53.919-277.759,64.075a687.814,687.814,0,0,1-69.614,4.2q-17.415.133-34.845-.75-17.429-.9-34.874-2.915A495.939,495.939,0,0,1-63.705,548.893q-2.006-149.237-4.012-298.473h0c184.948,79.2,373.047,36.283,551.6-17.275C664.157,180.7,835,117.6,1025,182m0,0c183.61,68.841,351,11.9,508.8-51.759,83.01-33.062,163.2-67.934,250.84-81.378a482.525,482.525,0,0,1,67.46-5.588q17.31-.2,35.14.939,17.82,1.156,36.19,3.763c48.94,6.975,101.06,22.228,155.56,47.342,35.94,121.727,50.01,229.4,56.04,331.9-192.54-84.074-373.11-36.321-556.44,14.163C1395.9,492.29,1237.2,556.606,1050,494"
          />
  </path>

  <path id="shape_one" class="cls-3" d="M1033,486C652.992,340.18,322.972,738.992-57.036,593.171L-73.145,294.847C306.863,440.667,656.992,49.179,1037,195m-4,291c380.01,145.821,731.16-245.438,1111.17-99.617L2128.06,88.059C1748.05-57.762,1417.01,340.821,1037,195">
      <animate attributeName = "d" 
               begin = "0s"
               dur = "7s"
               repeatCount  = "indefinite"
               values = "M1033,486C652.992,340.18,322.972,738.992-57.036,593.171L-73.145,294.847C306.863,440.667,656.992,49.179,1037,195m-4,291c380.01,145.821,731.16-245.438,1111.17-99.617L2128.06,88.059C1748.05-57.762,1417.01,340.821,1037,195;
               M1033,486C652.992,340.18,322.972,738.992-57.036,593.171L-73.145,294.847C306.863,475.667,656.992,49.179,1037,195m-4,291c380.01,145.821,731.16-245.438,1111.17-99.617L2128.06,88.059C1748.05-57.762,1617.01,340.821,1037,195; 
               M1033,486C652.992,340.18,322.972,738.992-57.036,593.171L-73.145,294.847C306.863,440.667,656.992,49.179,1037,195m-4,291c380.01,145.821,731.16-245.438,1111.17-99.617L2128.06,88.059C1748.05-57.762,1417.01,340.821,1037,195"
      />
  </path>
</svg>
